<svg preserveAspectRatio="xMidYMid meet" width="100%" height="100%" overflow="visible" style="display: block; overflow: visible;" viewBox="0 0 807 781.936" fill="none" xmlns="http://www.w3.org/2000/svg">
<defs>
  <clipPath id="arm-right-clip">
    <path d="M 640 430 Q 620 350 650 260 Q 665 200 690 140 Q 700 115 720 100 L 820 100 L 820 300 Q 800 360 760 400 Q 730 430 690 440 Z"/>
  </clipPath>
</defs>
<g id="Group 2_sid_204:233">
<path id="Vector_sid_204:234" d="M359.839 1.69843C428.139 -8.20706 532.905 26.3284 581.073 76.2781C585.271 71.6757 589.904 67.4901 594.908 63.7792C616.441 48.1152 665.088 38.8846 690.607 43.4519C750.017 54.0867 763.602 128.311 755.596 175.955C771.73 184.16 796.665 202.512 807 217.558C805.174 231.082 798.16 247.388 792.553 259.894C768.031 314.577 727.366 370.298 680.94 408.44C689.383 426.539 699.72 476.991 701.798 496.873C710.257 577.825 693.542 715.94 643.549 780.228C624.15 781.574 530.82 783.814 517.233 778.983C514.285 776.291 512.267 765.661 511.177 761.187C508.881 751.772 503.699 734.235 499.07 725.777C485.712 701.366 458.531 680.038 435.46 665.516C409.686 649.293 403.718 653.142 376.054 659.968C361.324 663.376 335.044 671.468 322.683 679.873C290.643 701.656 277.069 741.818 269.018 777.222C250.351 780.91 230.003 778.919 210.799 780.449C187.846 782.284 164.127 781.168 141.219 779.14C132.822 765.504 130.412 758.215 123.871 744.532C104.567 704.156 96.2575 665.748 92.8546 621.609C91.7916 607.824 89.838 600.222 89.9394 585.251C61.0435 573.836 22.3472 562.133 0 538.576C4.34646 515.457 14.4091 497.928 25.2928 477.439C51.528 428.048 87.8382 373.159 127.353 333.166C110.259 329.025 94.0034 319.288 81.4473 307.409C35.8584 264.28 15.7238 196.162 14.4497 134.668C14.0201 113.926 16.5969 101.653 31.2164 85.7457C55.7607 59.0367 98.1411 47.3186 133.386 45.0312C157.806 43.4473 183.592 51.39 201.753 68.1723C255.097 20.7331 288.058 8.20651 359.839 1.69843Z" fill="var(--fill-0, black)"/>
<path id="Vector_sid_204:235" d="M701.704 159.601C704.568 163.712 693.322 212.74 735.436 182.545L735.258 183.019C730.305 196.267 734.846 217.559 753.019 215.228C755.097 214.962 763.807 210.027 766.542 208.621C768.994 209.732 767.142 212.623 767.056 215.78C766.469 237.192 783.11 235.883 797.739 230.028C778.541 282.114 750.383 327.335 713.4 368.573C703.07 380.091 686.564 397.452 674.373 406.633C680.776 429.485 692.052 468.397 694.485 491.307C702.212 564.071 692.82 673.065 660.3 738.602C651.35 743.734 644.561 727.826 628.135 755.339C615.804 727.808 599.231 736.71 587.626 758.679C582.319 749.361 574.517 739.422 562.244 746.24C551.611 752.148 548.129 764.812 545.249 775.885L518.608 775.774C516.338 754.875 514.768 744.262 504.657 724.141C490.538 696.041 447.658 661.118 418.249 652.029C451.677 647.811 470.664 651.302 501.491 651.592C458.954 632.867 364.031 652.056 323.864 673.027C294.163 688.533 276.448 727.809 267.718 758.456C256.819 731.671 245.363 735.513 233.496 758.695C221.397 728.243 197.098 733.703 188.959 762.695C183.037 753.439 173.02 738.091 159.628 746.836C149.87 753.208 148.065 767.965 146.065 778.78C140.304 769.745 136.824 759.952 132.289 750.643C113.125 711.306 104.609 672.896 99.0699 629.858C97.2435 615.673 97.4758 600.738 95.4272 586.359C102.527 588.112 118.018 593.297 124.634 590.442C127.293 589.294 127.992 585.363 129.063 582.353C130.719 575.472 135.749 564.988 138.805 558.228C154.556 523.383 175.284 492.056 197.892 461.371C204.305 452.666 219.018 436.373 223.22 427.931C197.974 442.457 158.951 506.771 144.302 533.96C139.626 542.847 135.097 551.8 130.884 560.904C127.842 567.478 125.11 581.255 119.005 585.183C115.837 584.411 115.524 579.07 115.369 576.188C114.112 552.822 102.396 543.956 82.7264 561.65C83.4446 531.382 66.535 525.361 44.4468 544.512C43.3626 536.357 43.6115 535.798 41.077 528.083C29.3912 516.728 20.4114 520.551 8.11344 528.524C33.4257 468.422 67.4837 412.392 109.184 362.251C115.837 354.323 128.035 340.039 135.992 334.195C164.184 332.308 178.479 325.902 198.698 305.327C221.518 322.25 232.966 325.994 256.666 337.305C315.465 365.37 365.859 370.637 430.193 361.772L430.29 362.249C438.846 402.356 458.668 431.472 493.369 453.809C531.966 478.655 590.175 486.348 634.54 476.765C633.049 470.384 630.993 461.97 630.592 455.47C629.689 440.835 630.858 430.268 626.814 415.959C600.971 406.626 565.528 417.79 553.282 383.568C547.356 367.007 544.019 348.502 544.582 330.914C561.419 319.915 574.823 306.743 591.42 295.757C639.784 263.744 678.894 213.006 701.704 159.601Z" fill="var(--fill-0, #FACFFC)"/>
<path id="Vector_sid_204:236" d="M368.389 8.29033C384.754 7.19413 401.183 7.46794 417.503 9.10994C466.336 14.1503 516.859 36.2938 557.688 63.9985C566.923 70.2651 585.164 89.9396 592.96 99.4274C615.565 126.942 623.899 160.247 620.557 195.398C614.465 259.501 593.138 285.628 544.803 324.419C549.005 306.693 553.292 287.517 552.168 269.215C542.204 303.6 534.251 339.707 544.456 374.71C552.855 407.109 574.364 415.436 605.368 417.106C622.162 418.011 625.297 420.802 624.341 438.24C623.665 450.548 624.032 462.087 627.39 474.092C588.464 476.629 553.304 474.718 516.671 459.634C515.538 459.124 514.409 458.607 513.282 458.085C467.868 437.012 444.302 402.331 435.03 355.003C432.853 343.892 429.286 332.559 427.367 321.295C427.103 319.745 426.492 319.266 425.211 318.693L424.067 319.524C422.668 327.333 426.927 347.251 428.834 355.268C414.198 356.908 396.739 359.445 382.11 359.901C322.082 361.768 241.766 331.94 196.173 294.676C127.688 238.701 144.757 136.719 201.548 78.7434C250.637 28.6333 297.974 11.1954 368.389 8.29033Z" fill="var(--fill-0, #FACFFC)"/>
<g id="eye-left" data-eye="left">
  <path d="M365.374 160C400.37 159.781 392.509 236.508 371.799 246.153C363.535 246.035 357.67 240.398 354.671 232.946C346.52 212.694 341.748 171.254 365.374 160Z" fill="var(--fill-0, black)"/>
</g>
<g id="eye-right" data-eye="right">
  <path d="M570.878 144.856C599.41 141.977 589.656 196.848 582.936 211.123C579.074 219.326 578.373 221.234 571.791 227.576C548.285 233.406 546.951 157.634 570.878 144.856Z" fill="var(--fill-0, black)"/>
</g>
<path id="Vector_sid_204:239" d="M131.589 51.484C132.711 51.3817 133.835 51.3033 134.96 51.248C158.772 50.1075 180.135 57.0868 197.811 73.0753C164.426 111.517 144.614 147.107 145.427 199.65C146.202 249.627 160.728 269.129 194.48 301.764C192.492 303.63 190.482 305.472 188.451 307.29C175.474 318.685 154.509 328.802 136.862 327.666C117.633 324.669 105.522 319.862 90.431 307.111C52.8401 275.348 27.1646 214.341 23.4426 166.143C21.4521 140.359 15.4355 112.476 33.4062 92.8024C60.2001 63.4694 94.3613 54.757 131.589 51.484Z" fill="var(--fill-0, #FACFFC)"/>
<path id="Vector_sid_204:240" d="M660.381 49.6317C664.043 48.9974 677.572 49.0868 681.518 49.0223C697.383 48.7651 714.915 58.4262 725.615 70.29C751.121 98.5682 751.006 136.734 749.72 172.115C736.195 166.812 719.249 155.221 704.465 154.489C701.113 154.323 699.241 155.311 697.434 158.17C690.765 168.723 685.387 180.434 679.139 191.38C664.969 216.208 650.42 234.136 631.286 255.195C622.062 264.809 604.594 280.327 593.095 287.025C617.742 258.916 626.324 221.994 627.547 185.367C629.04 140.625 614.532 112.227 584.883 80.4481C612.498 57.8196 623.706 54.011 660.381 49.6317Z" fill="var(--fill-0, #FACFFC)"/>
<path id="Vector_sid_204:241" d="M210.435 743.52C226.38 743.794 228.87 761.58 230.772 774.106C225.353 774.779 218.686 775.157 213.163 775.627C207.151 775.756 194.917 777.444 191.168 773.212C188.441 763.706 200.389 746.586 210.435 743.52Z" fill="var(--fill-0, #FACFFC)"/>
<path id="Vector_sid_204:242" d="M606.584 743.449C624.704 743.053 623.229 763.134 623.051 775.691L608.062 775.553L590.287 775.59C591.588 760.447 593.204 752.076 606.584 743.449Z" fill="var(--fill-0, #FACFFC)"/>
<path id="Vector_sid_204:243" d="M59.392 539.741C83.1904 538.215 77.6799 556.658 74.8071 573.717C70.9431 572.387 66.763 570.706 62.9055 569.251C54.7001 565.884 48.1875 562.42 40.3813 558.314C44.9468 550.839 52.0071 544.383 59.392 539.741Z" fill="var(--fill-0, #FACFFC)"/>
<path id="Vector_sid_204:244" d="M741.794 175.664C749.191 178.724 766.673 189.991 773.525 194.813C770.076 198.605 767.369 201.094 763.602 204.499C737.526 222.028 735.636 194.448 741.794 175.664Z" fill="var(--fill-0, #FACFFC)"/>
<path id="Vector_sid_204:245" d="M165.723 748.005C180.495 751.313 182.585 762.978 187.658 775.673L173.234 775.784L150.155 775.737C152.427 765.181 154.71 752.755 165.723 748.005Z" fill="var(--fill-0, #FACFFC)"/>
<path id="Vector_sid_204:246" d="M566.779 748.878C582.989 748.444 584.409 762.932 584.228 775.563L567.37 775.618C562.91 775.71 553.838 776.577 550.896 774.171C547.261 766.168 560.501 752.673 566.779 748.878Z" fill="var(--fill-0, #FACFFC)"/>
<path id="Vector_sid_204:247" d="M248.718 744.929C261.881 743.92 264.178 763.908 265.173 773.239L252.817 773.229L236.358 773.93C237.638 760.821 238.533 754.08 248.718 744.929Z" fill="var(--fill-0, #FACFFC)"/>
<path id="Vector_sid_204:248" d="M21.3167 526.981C42.2119 524.008 40.0379 541.873 35.95 556.226L27.2209 551.495C19.3004 547.028 11.7883 541.874 4.76908 536.093C10.2385 531.884 14.9672 529.444 21.3167 526.981Z" fill="var(--fill-0, #FACFFC)"/>
<path id="Vector_sid_204:249" d="M778.259 198.257C784.502 201.587 795.628 212.372 800.369 218.005C801.412 219.243 801.045 219.244 800.758 221.053C798.683 223.877 796.516 224.833 793.481 226.579C767.419 236.303 766.89 213.817 778.259 198.257Z" fill="var(--fill-0, #FACFFC)"/>
<path id="Vector_sid_204:250" d="M708.392 159.955L738.179 173.016C735.041 175.785 731.937 178.789 728.884 181.666C709.458 196.909 701.889 178.585 708.392 159.955Z" fill="var(--fill-0, #FACFFC)"/>
<path id="Vector_sid_204:251" d="M95.4867 558.158C96.7885 558.081 98.093 558.044 99.3967 558.045C109.441 558.117 113.652 575.705 106.936 581.917C102.842 582.584 98.8785 581.25 94.8312 580.243C89.4506 579.574 83.8885 576.732 79.1035 574.323C85.0391 566.346 86.7355 563.1 95.4867 558.158Z" fill="var(--fill-0, #FACFFC)"/>
<path id="Vector_sid_204:252" d="M645.045 744.449C645.584 744.424 646.121 744.402 646.659 744.384C650.447 744.254 652.71 743.866 655.312 746.302C655.128 751.703 645.662 773.755 640.52 775.645L628.173 775.544C631.435 763.706 633.089 750.165 645.045 744.449Z" fill="var(--fill-0, #FACFFC)"/>
</g>
<!-- Animated right arm overlay -->
<g id="arm-right" clip-path="url(#arm-right-clip)">
  <!-- Silhouette (black outline) -->
  <use href="#Vector_sid_204:234"/>
  <!-- Body fill -->
  <use href="#Vector_sid_204:235"/>
  <!-- Head fill -->
  <use href="#Vector_sid_204:236"/>
  <!-- Right ear fill -->
  <use href="#Vector_sid_204:240"/>
  <!-- Finger details -->
  <use href="#Vector_sid_204:244"/>
  <use href="#Vector_sid_204:249"/>
  <use href="#Vector_sid_204:250"/>
</g>
</svg>
