<svg preserveAspectRatio="xMidYMid meet" width="100%" height="100%" overflow="visible" style="display: block;" viewBox="0 0 244.496 257" fill="none" xmlns="http://www.w3.org/2000/svg">
<g id="Group 3">
<path id="Vector" d="M113.852 0.488039C138.109 -2.46048 169.029 8.23104 186.738 24.9961C195.472 15.3195 211.723 12.7886 224.324 14.5512C229.339 15.2525 236.471 21.5402 239.06 25.971C246.603 38.8788 245.176 57.8669 241.5 71.809C242.432 72.1912 242.924 72.3335 243.687 72.9986C244.157 74.548 235.034 92.3516 233.869 95.7463C229.391 108.804 223.795 121.817 219.555 134.933C223.178 142.987 226.652 161.44 226.917 170.221C227.484 189.055 225.253 213.267 219.459 231.303C216.626 240.267 212.537 248.785 207.314 256.602C197.13 256.996 187.003 256.899 176.814 256.981C172.961 257.011 169.26 257.078 165.435 256.487C163.594 252.786 163.09 247.14 161.105 242.134C156.638 230.866 142.411 219.678 131.473 215.303C128.25 213.135 105.169 220.992 101.312 223.758C91.3436 230.905 86.1945 244.055 83.8211 255.562C79.5959 256.641 46.8307 257.697 42.4939 256.071C39.9103 255.101 35.6578 243.74 34.3827 240.921C28.4013 227.701 26.795 214.164 25.5459 199.884C24.8868 192.349 24.1164 184.967 24.0591 177.383C23.9642 164.813 26.3934 147.852 30.8127 136.146C28.89 131.227 23.1837 120.981 20.5431 115.862L0.0162909 76.0548C1.61021 75.1643 3.74857 73.7108 5.34977 72.7041C3.88688 69.5876 2.1677 64.2608 1.83921 60.9234C0.874671 51.1236 -2.65682 38.9437 3.75737 30.4503C10.7196 21.2314 22.6393 16.9956 33.555 15.3277C45.5477 13.4954 52.6152 15.4578 62.0459 22.303C77.0872 6.89919 93.1741 2.42713 113.852 0.488039Z" fill="var(--fill-0, black)"/>
<path id="Vector_2" d="M218.902 61.4907C219.998 61.6408 237.716 71.996 242.021 73.6651C235.785 85.2414 231.292 97.3449 226.787 109.595C222.72 120.452 218.809 131.366 215.052 142.335L215.114 142.207L215.386 143.121L215.078 142.359L214.958 143.378C216.35 142.941 217.829 139.132 218.431 137.808C221.373 145.993 223.237 157.105 224.325 165.813C224.82 169.784 224.469 174.393 224.594 178.431C225.11 194.981 222.537 211.48 218.471 227.48C217.136 232.711 214.551 238.618 212.376 243.7C206.512 241.795 204.666 243.609 201.853 248.572C200.092 243.758 198.982 242.824 194.085 243.022C192.356 244.126 190.871 245.554 189.788 247.316C189.233 248.218 189.341 248.558 188.565 249.477C186.561 246.398 184.078 242.608 179.663 245.756C176.723 247.852 175.667 251.71 175.173 255.177L166.021 255.146C165.233 247.667 164.222 242.712 160.173 236.05C155.257 227.961 141.704 216.64 132.556 214.475C141.903 213.421 151.062 213.716 160.415 214.396C146.981 208.078 116.352 214.474 103.323 220.572C92.5877 225.597 87.0937 238.138 83.5528 248.619C78.9746 240.2 75.6475 242.884 72.0135 249.79C68.5121 238.825 60.716 241.78 57.1903 251.13C53.7577 241.657 46.4915 243.085 44.1845 252.146C43.8839 253.326 43.6846 254.603 43.4668 255.807C40.7998 251.767 40.1088 249.287 38.1167 245.156C31.4956 231.426 30.0961 220.777 27.9508 206.072C26.1573 187.476 25.2185 171.839 28.7843 153.196C29.6921 148.45 30.3382 143.396 32.2861 138.897C33.8603 142.024 35.6862 144.858 38.305 147.215C34.1211 137.059 28.0897 127.018 23.3198 117.084C16.6827 103.262 9.71069 89.8627 1.90915 76.6549C6.93991 74.407 20.0755 65.9576 24.4918 62.5526C36.5225 78.008 51.9381 91.4833 65.6876 105.485C68.4921 108.34 73.1079 114.4 75.5666 116.368C73.905 111.772 71.329 108.962 68.3359 105.165C68.7365 105.394 69.1384 105.621 69.5418 105.846C85.9223 114.981 104.745 121.379 123.751 120.158C131.307 119.673 138.432 119.25 145.743 117.183C153.688 122.571 160.423 128.462 170.282 129.937C199.729 134.341 216.788 115.575 230.611 93.5052C228.338 92.7654 225.567 92.5325 223.305 91.6153C218.469 89.6537 215.508 86.7437 210.245 86.1884C207.438 89.1035 204.866 92.1916 202.159 95.1986C198.108 99.6989 193.926 99.199 188.495 98.5469C198.049 86.2102 209.166 73.9023 218.902 61.4907Z" fill="var(--fill-0, #FACFFC)"/>
<path id="Vector_3" d="M116.818 2.66092C116.967 2.64424 117.117 2.62998 117.268 2.61785C135.072 1.31026 151.965 5.78961 167.494 14.2081C172.005 16.6534 177.088 19.1485 180.864 22.616C190.939 31.8683 198.791 41.4178 199.537 55.5838C200.439 72.7056 196.085 84.385 185.015 97.0432C173.947 92.7965 171.715 87.2713 167.388 76.8704C166.567 74.8961 164.121 65.4846 162.931 64.7742C161.949 68.2265 167.095 80.5496 168.686 84.0262C172.442 92.2305 176.694 95.8312 185.159 99.1406C189.243 100.563 195.663 101.345 199.623 99.2237C203.091 97.3662 206.859 90.9296 210.156 89.2335C212.965 87.7885 218.884 92.0139 221.528 93.1684C223.2 93.8987 225.263 94.5942 227.094 95.2876C227.291 97.3963 216.886 109.941 215.052 111.821C212.558 114.35 209.894 116.707 207.079 118.874C198.766 124.969 193.2 126.848 183.147 128.431C164.057 131.436 150.6 118.615 136.999 107.493C136.388 106.993 136.468 107.092 135.775 107.214L135.738 107.876C137.041 110.345 141.662 113.878 143.932 115.737C130.371 118.504 111.569 119.542 98.1315 115.593C85.6092 111.913 69.7434 105.018 59.6976 96.7547C37.8159 78.7549 43.0966 44.0357 61.7747 25.751C77.8297 9.22646 93.8441 3.58239 116.818 2.66092Z" fill="var(--fill-0, #FACFFC)"/>
<path id="Vector_4" d="M106.867 63.7655C118.387 63.3803 115.756 88.6482 109.258 92.0775C106.483 92.042 104.729 90.5421 103.577 88.0058C100.501 81.2319 98.9389 67.8133 106.867 63.7655Z" fill="var(--fill-0, black)"/>
<path id="Vector_5" d="M186.364 64.386C196.873 62.6086 192.518 85.4633 186.897 91.2627C186.22 91.4593 185.966 91.4614 185.256 91.5157C178.292 89.1929 179.466 68.3 186.364 64.386Z" fill="var(--fill-0, black)"/>
<path id="Vector_6" d="M38.691 16.8714C38.7996 16.8614 38.9082 16.852 39.0168 16.8432C47.2797 16.1862 54.2526 18.6036 60.5151 23.9143C47.0904 38.8241 40.1661 56.0019 44.4018 76.4402C45.0009 79.3301 46.1793 81.8461 47.5357 84.4534C44.1371 82.2914 35.8611 73.2099 32.888 69.9468C30.3302 66.9279 27.6131 64.048 24.7483 61.3187C19.117 64.0404 12.1592 68.7087 6.75267 72.1574C5.19758 65.7004 3.08256 59.0317 2.76681 52.4171C2.40011 44.7265 0.742795 36.5349 6.34622 30.4323C15.1751 20.8169 26.4836 17.9378 38.691 16.8714Z" fill="var(--fill-0, #FACFFC)"/>
<path id="Vector_7" d="M187.839 26.4497C190.071 24.577 192.552 22.3989 195.132 20.9785C202.469 16.939 212.73 15.7297 220.944 16.181C226.025 16.4603 231.967 20.2873 235.147 24.2094C243.411 34.402 242.388 48.9556 241.361 61.2332C241.126 64.0516 240.345 68.1505 239.772 70.9507C235.753 68.3516 223.214 61.8137 218.848 60.086C217.26 61.336 216.272 62.6687 214.928 64.1037C208.963 70.47 203.723 77.9033 197.921 84.3272L196.98 83.2056C200.713 75.1847 201.553 68.3456 201.755 59.5058C202.069 45.6956 197.165 36.2771 187.839 26.4497Z" fill="var(--fill-0, #FACFFC)"/>
<path id="Vector_8" d="M64.5682 244.538C70.1103 244.451 70.5062 250.57 71.2104 254.704C69.1779 254.804 67.1476 254.934 65.1193 255.095C63.1083 255.159 60.9979 255.289 59.0042 255.086C56.5667 253.375 59.7409 249.257 60.7892 247.312C61.6573 245.702 62.9445 245.193 64.5682 244.538Z" fill="var(--fill-0, #FACFFC)"/>
<path id="Vector_9" d="M195.229 244.526C201.033 244.593 200.391 251.076 200.351 255.131L194.361 255.049L189.376 255.034C189.956 250.483 190.682 246.69 195.229 244.526Z" fill="var(--fill-0, #FACFFC)"/>
<path id="Vector_10" d="M181.705 246.343C187.29 246.047 187.356 250.757 187.596 255.073L181.986 255.082C180.48 255.112 177.84 255.37 176.718 254.709C175.6 252.018 179.521 247.618 181.705 246.343Z" fill="var(--fill-0, #FACFFC)"/>
<path id="Vector_11" d="M49.4568 246.005C54.6153 246.48 55.7066 250.819 56.818 255.164L52.395 255.158L45.0991 255.112C45.2107 254.503 45.3284 253.896 45.4528 253.29C46.0997 250.148 46.673 247.835 49.4568 246.005Z" fill="var(--fill-0, #FACFFC)"/>
<path id="Vector_12" d="M77.1963 245.025C80.6502 245.238 81.4112 248.529 82.498 251.348C82.8195 252.183 82.7728 253.211 82.2999 253.993C81.5277 254.442 79.328 254.324 78.3046 254.333L73.023 254.524C73.4189 250.506 73.9685 247.714 77.1963 245.025Z" fill="var(--fill-0, #FACFFC)"/>
<path id="Vector_13" d="M207.339 244.862C208.832 244.772 209.905 244.576 211.037 245.483C210.988 247.328 207.785 253.363 206.694 255.11C205.322 254.965 203.501 255.211 202.763 254.604C201.543 251.771 204.898 246.526 207.339 244.862Z" fill="var(--fill-0, #FACFFC)"/>
<path id="Vector_14" d="M196.982 83.206L197.923 84.3276C196.353 86.4438 195.43 87.3292 193.511 89.1694C194.715 87.2091 195.872 85.2209 196.982 83.206Z" fill="var(--fill-0, #FACFFD)"/>
</g>
</svg>
